<svg width="500" height="329" viewBox="0 0 500 329" fill="none" xmlns="http://www.w3.org/2000/svg" id="svg950070462_6796">
<mask id="svg950070462_6796_mask0_6832_7291" style="mask-type:luminance" maskUnits="userSpaceOnUse" x="0" y="0" width="500" height="329">
<path d="M500 0H0V329H500V0Z" fill="white"/>
</mask>
<g mask="url(#svg950070462_6796_mask0_6832_7291)">
<path opacity="0.15" d="M331.299 372.77L323.469 335.1L327.919 335.33L314.929 294.01H305.279C296.229 232.84 301.829 177.56 304.369 155.67C307.539 128.38 312.119 118.87 296.449 99.1498C280.779 79.4298 276.549 68.3398 271.979 63.7598C267.409 59.1798 262.649 62.5298 262.649 62.5298C258.419 54.0798 244.689 40.6998 235.709 42.6298C226.729 44.5698 227.789 49.6698 227.789 49.6698C227.789 49.6698 225.679 47.0298 223.039 45.9698C220.399 44.9098 211.769 47.7298 208.249 50.0198C204.729 52.3098 206.669 69.9198 206.669 69.9198C206.669 69.9198 204.559 62.5198 195.399 61.4698C186.239 60.4098 179.199 70.7998 178.319 76.0798C177.439 81.3598 180.079 89.9898 180.079 89.9898C180.079 89.9898 174.089 92.4598 171.799 93.8598C169.509 95.2598 166.169 119.22 169.329 126.43C172.499 133.65 180.719 153.14 196.919 186.24C213.119 219.34 211.239 240.24 209.129 260.43C208.349 267.91 206.109 280.77 203.609 294H195.979L180.719 327.81L188.079 328.19L177.779 372.77H331.319H331.299Z" fill="black"/>
<path d="M194.308 322.58C194.308 322.58 206.988 263.18 209.098 242.99C211.208 222.8 213.088 201.91 196.888 168.8C180.688 135.7 172.468 116.21 169.298 108.99C166.128 101.77 169.478 77.8198 171.768 76.4198C174.058 75.0198 180.048 72.5498 180.048 72.5498C180.048 72.5498 177.408 63.9198 178.288 58.6398C179.168 53.3598 186.208 42.9697 195.368 44.0297C204.528 45.0897 206.638 52.4797 206.638 52.4797C206.638 52.4797 204.698 34.8698 208.218 32.5798C211.738 30.2898 220.368 27.4697 223.008 28.5297C225.648 29.5897 227.758 32.2297 227.758 32.2297C227.758 32.2297 226.698 27.1197 235.678 25.1897C244.658 23.2497 258.388 36.6297 262.618 45.0897C262.618 45.0897 267.368 41.7397 271.948 46.3197C276.528 50.8997 280.748 61.9898 296.418 81.7098C312.088 101.43 307.508 110.94 304.338 138.23C301.168 165.52 293.248 244.76 314.898 322.58H194.288H194.308Z" fill="#FF9381"/>
<path d="M194.308 322.58C194.308 322.58 206.988 263.18 209.098 242.99C211.208 222.8 213.088 201.91 196.888 168.8C180.688 135.7 172.468 116.21 169.298 108.99C166.128 101.77 169.478 77.8198 171.768 76.4198C174.058 75.0198 180.048 72.5498 180.048 72.5498C180.048 72.5498 177.408 63.9198 178.288 58.6398C179.168 53.3598 186.208 42.9697 195.368 44.0297C204.528 45.0897 206.638 52.4797 206.638 52.4797C206.638 52.4797 204.698 34.8698 208.218 32.5798C211.738 30.2898 220.368 27.4697 223.008 28.5297C225.648 29.5897 227.758 32.2297 227.758 32.2297C227.758 32.2297 226.698 27.1197 235.678 25.1897C244.658 23.2497 258.388 36.6297 262.618 45.0897C262.618 45.0897 267.368 41.7397 271.948 46.3197C276.528 50.8997 280.748 61.9898 296.418 81.7098C312.088 101.43 307.508 110.94 304.338 138.23C301.168 165.52 293.248 244.76 314.898 322.58H194.288H194.308Z" fill="url(#svg950070462_6796_paint0_linear_6832_7291)"/>
<path d="M178.246 73.3196C178.246 73.3196 183.976 101.2 199.116 121.28C199.116 121.28 183.856 85.9496 180.046 72.5696L178.246 73.3296V73.3196Z" fill="url(#svg950070462_6796_paint1_linear_6832_7291)"/>
<path d="M202.055 51.5396C203.935 57.4096 204.635 62.5696 204.635 62.5696L201.115 58.5796L220.835 107.29L206.635 52.4696C206.635 52.4696 204.525 45.0696 195.365 44.0196C194.605 43.9296 193.855 43.9296 193.125 43.9896C193.185 43.9996 200.185 45.6895 202.055 51.5295V51.5396Z" fill="url(#svg950070462_6796_paint2_linear_6832_7291)"/>
<path d="M251.406 95.1096C251.746 96.2496 251.946 96.9096 251.946 96.9096C251.836 96.4696 251.646 95.8596 251.406 95.1096Z" fill="url(#svg950070462_6796_paint3_linear_6832_7291)"/>
<path d="M251.406 95.1096C249.416 88.4296 242.446 65.0996 240.436 58.5896C238.086 50.9596 228.936 31.2397 228.936 31.2397C228.936 31.2397 228.606 29.8697 229.616 27.8997C227.296 29.9797 227.756 32.2296 227.756 32.2296C227.756 32.2296 225.646 29.5896 223.006 28.5296C222.856 28.4696 222.686 28.4296 222.516 28.3896C222.566 28.4796 229.886 40.5196 232.226 45.3096C234.416 49.7896 248.186 85.0696 251.406 95.0996V95.1096Z" fill="url(#svg950070462_6796_paint4_linear_6832_7291)"/>
<path d="M292.906 109.06C292.906 109.06 288.446 94.2697 282.226 81.2397C276.616 69.4897 265.476 51.3398 267.216 43.9298C264.996 43.7298 263.246 44.6898 262.766 44.9898C262.766 45.1698 262.746 45.3497 262.746 45.5497C262.746 45.5497 278.006 74.5397 281.876 82.7597C285.746 90.9797 292.906 109.06 292.906 109.06Z" fill="url(#svg950070462_6796_paint5_linear_6832_7291)"/>
<path d="M195.948 276.57L177.758 355.34H331.298L314.918 276.57H195.948Z" fill="#5C1F8C"/>
<path d="M195.948 276.57L177.758 355.34H331.298L314.918 276.57H195.948Z" fill="url(#svg950070462_6796_paint6_linear_6832_7291)"/>
<path d="M314.918 276.57H195.948L180.688 310.38L327.908 317.89L314.918 276.57Z" fill="#5D267B"/>
<path d="M314.918 276.57H195.948L180.688 310.38L327.908 317.89L314.918 276.57Z" fill="url(#svg950070462_6796_paint7_linear_6832_7291)"/>
</g>
<defs>
<linearGradient id="svg950070462_6796_paint0_linear_6832_7291" x1="241.468" y1="322.58" x2="241.468" y2="24.9997" gradientUnits="userSpaceOnUse">
<stop stop-color="#EC5A4F"/>
<stop offset="0.63" stop-color="#EC5A4F" stop-opacity="0"/>
</linearGradient>
<linearGradient id="svg950070462_6796_paint1_linear_6832_7291" x1="188.686" y1="72.5596" x2="188.686" y2="121.27" gradientUnits="userSpaceOnUse">
<stop stop-color="#EC5A4F"/>
<stop offset="1" stop-color="#EC5A4F" stop-opacity="0"/>
</linearGradient>
<linearGradient id="svg950070462_6796_paint2_linear_6832_7291" x1="206.975" y1="43.9596" x2="206.975" y2="107.3" gradientUnits="userSpaceOnUse">
<stop stop-color="#EC5A4F"/>
<stop offset="1" stop-color="#EC5A4F" stop-opacity="0"/>
</linearGradient>
<linearGradient id="svg950070462_6796_paint3_linear_6832_7291" x1="251.676" y1="95.1096" x2="251.676" y2="96.9096" gradientUnits="userSpaceOnUse">
<stop stop-color="#EC5A4F"/>
<stop offset="1" stop-color="#EC5A4F" stop-opacity="0"/>
</linearGradient>
<linearGradient id="svg950070462_6796_paint4_linear_6832_7291" x1="236.956" y1="27.8997" x2="236.956" y2="95.1096" gradientUnits="userSpaceOnUse">
<stop stop-color="#EC5A4F"/>
<stop offset="1" stop-color="#EC5A4F" stop-opacity="0"/>
</linearGradient>
<linearGradient id="svg950070462_6796_paint5_linear_6832_7291" x1="277.826" y1="43.9098" x2="277.826" y2="109.06" gradientUnits="userSpaceOnUse">
<stop stop-color="#EC5A4F"/>
<stop offset="1" stop-color="#EC5A4F" stop-opacity="0"/>
</linearGradient>
<linearGradient id="svg950070462_6796_paint6_linear_6832_7291" x1="254.528" y1="276.57" x2="254.528" y2="355.34" gradientUnits="userSpaceOnUse">
<stop stop-color="#40116D"/>
<stop offset="0.71" stop-color="#40116D" stop-opacity="0"/>
</linearGradient>
<linearGradient id="svg950070462_6796_paint7_linear_6832_7291" x1="254.298" y1="317.89" x2="254.298" y2="276.57" gradientUnits="userSpaceOnUse">
<stop stop-color="#40116D"/>
<stop offset="0.71" stop-color="#40116D" stop-opacity="0"/>
</linearGradient>
</defs>
</svg>